<mxfile host="app.diagrams.net" modified="2022-02-23T17:21:23.018Z" agent="5.0 (Windows NT 10.0; Win64; x64) AppleWebKit/537.36 (KHTML, like Gecko) Chrome/97.0.4692.99 Safari/537.36 OPR/83.0.4254.46" etag="saRZtWXhc6mUX_WsC-QV" version="16.6.3" type="github">
  <diagram name="Page-1" id="edf60f1a-56cd-e834-aa8a-f176f3a09ee4">
    <mxGraphModel dx="1076" dy="774" grid="1" gridSize="10" guides="1" tooltips="1" connect="1" arrows="1" fold="1" page="1" pageScale="1" pageWidth="1100" pageHeight="850" background="none" math="0" shadow="0">
      <root>
        <mxCell id="0" />
        <mxCell id="1" parent="0" />
        <mxCell id="RRRT6XBGX2fNgN_z1mHz-4" style="edgeStyle=orthogonalEdgeStyle;rounded=0;orthogonalLoop=1;jettySize=auto;html=1;entryX=0.5;entryY=0;entryDx=0;entryDy=0;" edge="1" parent="1" source="RRRT6XBGX2fNgN_z1mHz-1" target="RRRT6XBGX2fNgN_z1mHz-2">
          <mxGeometry relative="1" as="geometry" />
        </mxCell>
        <mxCell id="RRRT6XBGX2fNgN_z1mHz-1" value="START" style="rounded=0;whiteSpace=wrap;html=1;" vertex="1" parent="1">
          <mxGeometry x="440" y="70" width="120" height="60" as="geometry" />
        </mxCell>
        <mxCell id="RRRT6XBGX2fNgN_z1mHz-6" style="edgeStyle=orthogonalEdgeStyle;rounded=0;orthogonalLoop=1;jettySize=auto;html=1;entryX=0.5;entryY=0;entryDx=0;entryDy=0;" edge="1" parent="1" source="RRRT6XBGX2fNgN_z1mHz-2" target="RRRT6XBGX2fNgN_z1mHz-5">
          <mxGeometry relative="1" as="geometry" />
        </mxCell>
        <mxCell id="RRRT6XBGX2fNgN_z1mHz-2" value="Give them the menu" style="rounded=1;whiteSpace=wrap;html=1;arcSize=50;" vertex="1" parent="1">
          <mxGeometry x="440" y="190" width="120" height="50" as="geometry" />
        </mxCell>
        <mxCell id="RRRT6XBGX2fNgN_z1mHz-13" style="edgeStyle=orthogonalEdgeStyle;rounded=0;orthogonalLoop=1;jettySize=auto;html=1;entryX=0.5;entryY=0;entryDx=0;entryDy=0;" edge="1" parent="1" source="RRRT6XBGX2fNgN_z1mHz-3" target="RRRT6XBGX2fNgN_z1mHz-12">
          <mxGeometry relative="1" as="geometry" />
        </mxCell>
        <mxCell id="RRRT6XBGX2fNgN_z1mHz-3" value="Tale their order and take away the menu" style="rounded=1;whiteSpace=wrap;html=1;arcSize=50;" vertex="1" parent="1">
          <mxGeometry x="440" y="480" width="120" height="60" as="geometry" />
        </mxCell>
        <mxCell id="RRRT6XBGX2fNgN_z1mHz-7" value="Yes" style="edgeStyle=orthogonalEdgeStyle;rounded=0;orthogonalLoop=1;jettySize=auto;html=1;" edge="1" parent="1" source="RRRT6XBGX2fNgN_z1mHz-5" target="RRRT6XBGX2fNgN_z1mHz-3">
          <mxGeometry relative="1" as="geometry" />
        </mxCell>
        <mxCell id="RRRT6XBGX2fNgN_z1mHz-10" value="No" style="edgeStyle=orthogonalEdgeStyle;rounded=0;orthogonalLoop=1;jettySize=auto;html=1;entryX=0;entryY=0.5;entryDx=0;entryDy=0;" edge="1" parent="1" source="RRRT6XBGX2fNgN_z1mHz-5" target="RRRT6XBGX2fNgN_z1mHz-8">
          <mxGeometry relative="1" as="geometry" />
        </mxCell>
        <mxCell id="RRRT6XBGX2fNgN_z1mHz-5" value="Ask them if they are ready to order or not?" style="rhombus;whiteSpace=wrap;html=1;" vertex="1" parent="1">
          <mxGeometry x="430" y="270" width="140" height="150" as="geometry" />
        </mxCell>
        <mxCell id="RRRT6XBGX2fNgN_z1mHz-9" style="edgeStyle=orthogonalEdgeStyle;rounded=0;orthogonalLoop=1;jettySize=auto;html=1;" edge="1" parent="1" source="RRRT6XBGX2fNgN_z1mHz-8">
          <mxGeometry relative="1" as="geometry">
            <mxPoint x="500" y="250" as="targetPoint" />
            <Array as="points">
              <mxPoint x="810" y="250" />
            </Array>
          </mxGeometry>
        </mxCell>
        <mxCell id="RRRT6XBGX2fNgN_z1mHz-8" value="Take other people&#39;s orders" style="rounded=1;whiteSpace=wrap;html=1;arcSize=50;" vertex="1" parent="1">
          <mxGeometry x="750" y="317.5" width="120" height="55" as="geometry" />
        </mxCell>
        <mxCell id="RRRT6XBGX2fNgN_z1mHz-16" value="Yes" style="edgeStyle=orthogonalEdgeStyle;rounded=0;orthogonalLoop=1;jettySize=auto;html=1;entryX=0.5;entryY=0;entryDx=0;entryDy=0;" edge="1" parent="1" source="RRRT6XBGX2fNgN_z1mHz-12" target="RRRT6XBGX2fNgN_z1mHz-14">
          <mxGeometry relative="1" as="geometry" />
        </mxCell>
        <mxCell id="RRRT6XBGX2fNgN_z1mHz-17" value="No" style="edgeStyle=orthogonalEdgeStyle;rounded=0;orthogonalLoop=1;jettySize=auto;html=1;entryX=0.5;entryY=1;entryDx=0;entryDy=0;" edge="1" parent="1" source="RRRT6XBGX2fNgN_z1mHz-12" target="RRRT6XBGX2fNgN_z1mHz-8">
          <mxGeometry relative="1" as="geometry" />
        </mxCell>
        <mxCell id="RRRT6XBGX2fNgN_z1mHz-12" value="Is the order finished and ready to serve?" style="rhombus;whiteSpace=wrap;html=1;" vertex="1" parent="1">
          <mxGeometry x="427.5" y="580" width="145" height="150" as="geometry" />
        </mxCell>
        <mxCell id="RRRT6XBGX2fNgN_z1mHz-20" style="edgeStyle=orthogonalEdgeStyle;rounded=0;orthogonalLoop=1;jettySize=auto;html=1;entryX=0.5;entryY=0;entryDx=0;entryDy=0;" edge="1" parent="1" source="RRRT6XBGX2fNgN_z1mHz-14" target="RRRT6XBGX2fNgN_z1mHz-19">
          <mxGeometry relative="1" as="geometry" />
        </mxCell>
        <mxCell id="RRRT6XBGX2fNgN_z1mHz-14" value="Serve their food" style="rounded=1;whiteSpace=wrap;html=1;arcSize=50;" vertex="1" parent="1">
          <mxGeometry x="440" y="830" width="120" height="50" as="geometry" />
        </mxCell>
        <mxCell id="RRRT6XBGX2fNgN_z1mHz-21" value="No" style="edgeStyle=orthogonalEdgeStyle;rounded=0;orthogonalLoop=1;jettySize=auto;html=1;entryX=0.75;entryY=1;entryDx=0;entryDy=0;" edge="1" parent="1" source="RRRT6XBGX2fNgN_z1mHz-19" target="RRRT6XBGX2fNgN_z1mHz-8">
          <mxGeometry relative="1" as="geometry" />
        </mxCell>
        <mxCell id="RRRT6XBGX2fNgN_z1mHz-22" value="Yes" style="edgeStyle=orthogonalEdgeStyle;rounded=0;orthogonalLoop=1;jettySize=auto;html=1;entryX=0.5;entryY=0;entryDx=0;entryDy=0;" edge="1" parent="1" source="RRRT6XBGX2fNgN_z1mHz-19" target="RRRT6XBGX2fNgN_z1mHz-23">
          <mxGeometry relative="1" as="geometry">
            <mxPoint x="500" y="1150" as="targetPoint" />
          </mxGeometry>
        </mxCell>
        <mxCell id="RRRT6XBGX2fNgN_z1mHz-19" value="Have they finished?" style="rhombus;whiteSpace=wrap;html=1;" vertex="1" parent="1">
          <mxGeometry x="435" y="970" width="130" height="120" as="geometry" />
        </mxCell>
        <mxCell id="RRRT6XBGX2fNgN_z1mHz-24" value="Yes" style="edgeStyle=orthogonalEdgeStyle;rounded=0;orthogonalLoop=1;jettySize=auto;html=1;entryX=0;entryY=0.5;entryDx=0;entryDy=0;" edge="1" parent="1" source="RRRT6XBGX2fNgN_z1mHz-23" target="RRRT6XBGX2fNgN_z1mHz-2">
          <mxGeometry relative="1" as="geometry">
            <mxPoint x="380" y="430" as="targetPoint" />
            <Array as="points">
              <mxPoint x="290" y="1200" />
              <mxPoint x="290" y="210" />
            </Array>
          </mxGeometry>
        </mxCell>
        <mxCell id="RRRT6XBGX2fNgN_z1mHz-27" style="edgeStyle=orthogonalEdgeStyle;rounded=0;orthogonalLoop=1;jettySize=auto;html=1;entryX=0.5;entryY=0;entryDx=0;entryDy=0;" edge="1" parent="1" source="RRRT6XBGX2fNgN_z1mHz-23" target="RRRT6XBGX2fNgN_z1mHz-26">
          <mxGeometry relative="1" as="geometry" />
        </mxCell>
        <mxCell id="RRRT6XBGX2fNgN_z1mHz-23" value="Ask them if they would like seconds?" style="rhombus;whiteSpace=wrap;html=1;" vertex="1" parent="1">
          <mxGeometry x="430" y="1130" width="140" height="140" as="geometry" />
        </mxCell>
        <mxCell id="RRRT6XBGX2fNgN_z1mHz-29" style="edgeStyle=orthogonalEdgeStyle;rounded=0;orthogonalLoop=1;jettySize=auto;html=1;entryX=0.5;entryY=0;entryDx=0;entryDy=0;" edge="1" parent="1" source="RRRT6XBGX2fNgN_z1mHz-26" target="RRRT6XBGX2fNgN_z1mHz-28">
          <mxGeometry relative="1" as="geometry" />
        </mxCell>
        <mxCell id="RRRT6XBGX2fNgN_z1mHz-26" value="Prepare the bill" style="rounded=1;whiteSpace=wrap;html=1;arcSize=50;" vertex="1" parent="1">
          <mxGeometry x="440" y="1330" width="120" height="50" as="geometry" />
        </mxCell>
        <mxCell id="RRRT6XBGX2fNgN_z1mHz-31" style="edgeStyle=orthogonalEdgeStyle;rounded=0;orthogonalLoop=1;jettySize=auto;html=1;entryX=0.5;entryY=0;entryDx=0;entryDy=0;" edge="1" parent="1" source="RRRT6XBGX2fNgN_z1mHz-28" target="RRRT6XBGX2fNgN_z1mHz-30">
          <mxGeometry relative="1" as="geometry" />
        </mxCell>
        <mxCell id="RRRT6XBGX2fNgN_z1mHz-28" value="Make them pay" style="rounded=1;whiteSpace=wrap;html=1;arcSize=50;" vertex="1" parent="1">
          <mxGeometry x="440" y="1420" width="120" height="50" as="geometry" />
        </mxCell>
        <mxCell id="RRRT6XBGX2fNgN_z1mHz-30" value="END" style="rounded=0;whiteSpace=wrap;html=1;" vertex="1" parent="1">
          <mxGeometry x="440" y="1530" width="120" height="40" as="geometry" />
        </mxCell>
      </root>
    </mxGraphModel>
  </diagram>
</mxfile>
